<?xml version="1.0" encoding="UTF-8"?>
<svg width="512px" height="512px" viewBox="0 0 512 512" version="1.1" xmlns="http://www.w3.org/2000/svg" xmlns:xlink="http://www.w3.org/1999/xlink">
    <title>icon-512</title>
    <defs>
        <radialGradient cx="50%" cy="50%" fx="50%" fy="50%" r="50%" id="radialGradient-1">
            <stop stop-color="#000000" stop-opacity="0.1" offset="0%"></stop>
            <stop stop-color="#000000" stop-opacity="0.3" offset="100%"></stop>
        </radialGradient>
        <linearGradient x1="0%" y1="0%" x2="100%" y2="100%" id="linearGradient-2">
            <stop stop-color="#3B82F6" offset="0%"></stop>
            <stop stop-color="#2563EB" offset="50%"></stop>
            <stop stop-color="#1D4ED8" offset="100%"></stop>
        </linearGradient>
        <linearGradient x1="0%" y1="0%" x2="100%" y2="100%" id="linearGradient-3">
            <stop stop-color="#10B981" offset="0%"></stop>
            <stop stop-color="#059669" offset="100%"></stop>
        </linearGradient>
        <linearGradient x1="0%" y1="0%" x2="100%" y2="100%" id="linearGradient-4">
            <stop stop-color="#FCD34D" offset="0%"></stop>
            <stop stop-color="#F59E0B" offset="100%"></stop>
        </linearGradient>
        <linearGradient x1="0%" y1="0%" x2="100%" y2="100%" id="linearGradient-5">
            <stop stop-color="#FCD34D" offset="0%"></stop>
            <stop stop-color="#F59E0B" offset="100%"></stop>
        </linearGradient>
        <linearGradient x1="0%" y1="0%" x2="100%" y2="100%" id="linearGradient-6">
            <stop stop-color="#FCD34D" offset="0%"></stop>
            <stop stop-color="#F59E0B" offset="100%"></stop>
        </linearGradient>
    </defs>
    <g id="icon-512" stroke="none" fill="none" fill-rule="evenodd" stroke-width="1">
        <g id="编组">
            <circle id="椭圆形" fill="url(#radialGradient-1)" fill-rule="nonzero" cx="256" cy="266" r="240"></circle>
            <circle id="椭圆形" stroke="#1E40AF" stroke-width="16" fill="url(#linearGradient-2)" fill-rule="nonzero" cx="256" cy="256" r="240"></circle>
            <circle id="椭圆形" stroke-opacity="0.100000001" stroke="#FFFFFF" stroke-width="2" cx="256" cy="256" r="200"></circle>
            <rect id="矩形" stroke="#E5E7EB" stroke-width="8" fill="#FFFFFF" fill-rule="nonzero" x="96" y="128" width="320" height="224" rx="32"></rect>
            <rect id="矩形" fill="#F9FAFB" fill-rule="nonzero" x="112" y="144" width="288" height="192" rx="16"></rect>
            <polygon id="路径" fill="url(#linearGradient-3)" fill-rule="nonzero" opacity="0.9" points="128 288 192 224 256 256 320 192 384 240 384 320 128 320"></polygon>
            <circle id="椭圆形" fill="url(#linearGradient-4)" fill-rule="nonzero" cx="176" cy="192" r="24"></circle>
            <g id="路径" stroke-linecap="round" stroke-width="4">
                <line x1="176" y1="152" x2="176" y2="168" stroke="url(#linearGradient-5)"></line>
                <line x1="176" y1="216" x2="176" y2="232" stroke="url(#linearGradient-5)"></line>
                <line x1="216" y1="192" x2="200" y2="192" stroke="url(#linearGradient-6)"></line>
                <line x1="152" y1="192" x2="136" y2="192" stroke="url(#linearGradient-6)"></line>
                <line x1="204" y1="164" x2="192" y2="176" stroke="url(#linearGradient-4)"></line>
                <line x1="160" y1="208" x2="148" y2="220" stroke="url(#linearGradient-4)"></line>
                <line x1="204" y1="220" x2="192" y2="208" stroke="url(#linearGradient-4)"></line>
                <line x1="160" y1="176" x2="148" y2="164" stroke="url(#linearGradient-4)"></line>
            </g>
            <g id="路径" stroke="#EF4444" stroke-linecap="round" stroke-linejoin="round" stroke-width="24">
                <polyline points="416 160 448 192 416 224"></polyline>
                <polyline points="416 96 448 128 416 160"></polyline>
                <polyline points="416 224 448 256 416 288"></polyline>
            </g>
            <g opacity="0.6" id="路径" stroke="#EF4444" stroke-linecap="round" stroke-width="6">
                <line x1="400" y1="128" x2="432" y2="128"></line>
                <line x1="400" y1="192" x2="432" y2="192"></line>
                <line x1="400" y1="256" x2="432" y2="256"></line>
            </g>
            <circle id="椭圆形" fill="#EF4444" fill-rule="nonzero" cx="416" cy="384" r="64"></circle>
            <circle id="椭圆形" stroke-opacity="0.200000003" stroke="#FFFFFF" stroke-width="4" cx="416" cy="384" r="56"></circle>
            <text id="S" fill="#FFFFFF" fill-rule="nonzero" font-family="Arial-BoldMT, Arial" font-size="96" font-weight="bold">
                <tspan x="385.5" y="417">S</tspan>
            </text>
            <circle id="椭圆形" fill="#10B981" fill-rule="nonzero" opacity="0.6" cx="80" cy="80" r="16"></circle>
            <circle id="椭圆形" fill="#F59E0B" fill-rule="nonzero" opacity="0.6" cx="432" cy="80" r="16"></circle>
            <circle id="椭圆形" fill="#8B5CF6" fill-rule="nonzero" opacity="0.6" cx="80" cy="432" r="16"></circle>
            <circle id="椭圆形" fill="#EC4899" fill-rule="nonzero" opacity="0.4" cx="160" cy="60" r="8"></circle>
            <circle id="椭圆形" fill="#06B6D4" fill-rule="nonzero" opacity="0.4" cx="352" cy="60" r="8"></circle>
            <circle id="椭圆形" fill="#84CC16" fill-rule="nonzero" opacity="0.4" cx="60" cy="352" r="8"></circle>
            <ellipse id="椭圆形" fill-opacity="0.200000003" fill="#FFFFFF" fill-rule="nonzero" transform="translate(200, 150) rotate(-30) translate(-200, -150)" cx="200" cy="150" rx="40" ry="20"></ellipse>
        </g>
    </g>
</svg>