<?xml version="1.0" encoding="UTF-8"?>
<svg width="192px" height="192px" viewBox="0 0 192 192" version="1.1" xmlns="http://www.w3.org/2000/svg" xmlns:xlink="http://www.w3.org/1999/xlink">
    <title>icon-192</title>
    <defs>
        <linearGradient x1="0%" y1="0%" x2="100%" y2="100%" id="linearGradient-1">
            <stop stop-color="#3B82F6" offset="0%"></stop>
            <stop stop-color="#1D4ED8" offset="100%"></stop>
        </linearGradient>
        <linearGradient x1="0%" y1="0%" x2="100%" y2="100%" id="linearGradient-2">
            <stop stop-color="#10B981" offset="0%"></stop>
            <stop stop-color="#059669" offset="100%"></stop>
        </linearGradient>
        <linearGradient x1="0%" y1="0%" x2="100%" y2="100%" id="linearGradient-3">
            <stop stop-color="#F59E0B" offset="0%"></stop>
            <stop stop-color="#D97706" offset="100%"></stop>
        </linearGradient>
    </defs>
    <g id="icon-192" stroke="none" fill="none" fill-rule="evenodd" stroke-width="1">
        <g id="编组">
            <circle id="椭圆形" stroke="#1E40AF" stroke-width="6" fill="url(#linearGradient-1)" fill-rule="nonzero" cx="96" cy="96" r="90"></circle>
            <rect id="矩形" stroke="#E5E7EB" stroke-width="3" fill="#FFFFFF" fill-rule="nonzero" x="36" y="48" width="120" height="84" rx="12"></rect>
            <rect id="矩形" fill="#F9FAFB" fill-rule="nonzero" x="42" y="54" width="108" height="72" rx="6"></rect>
            <polygon id="路径" fill="url(#linearGradient-2)" fill-rule="nonzero" opacity="0.8" points="48 108 72 84 96 96 120 72 144 90 144 120 48 120"></polygon>
            <circle id="椭圆形" fill="url(#linearGradient-3)" fill-rule="nonzero" cx="66" cy="72" r="9"></circle>
            <g id="路径" stroke="#EF4444" stroke-linecap="round" stroke-linejoin="round" stroke-width="9">
                <polyline points="156 60 168 72 156 84"></polyline>
                <polyline points="156 36 168 48 156 60"></polyline>
                <polyline points="156 84 168 96 156 108"></polyline>
            </g>
            <circle id="椭圆形" fill="#EF4444" fill-rule="nonzero" cx="156" cy="144" r="24"></circle>
            <text id="S" fill="#FFFFFF" fill-rule="nonzero" font-family="Arial-BoldMT, Arial" font-size="36" font-weight="bold">
                <tspan x="144.5" y="156">S</tspan>
            </text>
            <circle id="椭圆形" fill="#10B981" fill-rule="nonzero" opacity="0.6" cx="30" cy="30" r="6"></circle>
            <circle id="椭圆形" fill="#F59E0B" fill-rule="nonzero" opacity="0.6" cx="162" cy="30" r="6"></circle>
            <circle id="椭圆形" fill="#8B5CF6" fill-rule="nonzero" opacity="0.6" cx="30" cy="162" r="6"></circle>
        </g>
    </g>
</svg>